# xmcd
#
# Track frame offsets: 
#        151
#        18392
#        35817
#        51566
#        68899
#        86921
#        108672
#        128046
#        149064
#        166777
#        184641
#
# Disc length: 2703 seconds
#
# Revision: 0
# Processed by: cddbd v1.4PL0 Copyright (c) Steve Scherf et al.
# Submitted via: ExactAudioCopy v0.95a4
#
DISCID=a40a8d0b
DTITLE=Renee Austin - Sweet Talk
DYEAR=2003
DGENRE=Blues
TTITLE0=Not Alone
TTITLE1=Pretend We Never Met
TTITLE2=When Something Is Wrong
TTITLE3=Pour The Sugar Slowly
TTITLE4=Bottom of A Heart
TTITLE5=Fool Moon
TTITLE6=Bury The Hatchet
TTITLE7=Unraveling
TTITLE8=Bitter Water
TTITLE9=Ain't Nobody
TTITLE10=Black Pearl
EXTD=
EXTT0=
EXTT1=
EXTT2=
EXTT3=
EXTT4=
EXTT5=
EXTT6=
EXTT7=
EXTT8=
EXTT9=
EXTT10=
PLAYORDER=
